<svg width="60" height="76" viewBox="0 0 60 76" fill="none" xmlns="http://www.w3.org/2000/svg">
<mask id="mask0_0_21" style="mask-type:luminance" maskUnits="userSpaceOnUse" x="0" y="0" width="60" height="76">
<path d="M60 0H0V76H60V0Z" fill="white"/>
</mask>
<g mask="url(#mask0_0_21)">
<path d="M16.769 43.47C16.461 42.86 16 42.5601 15.385 42.5601V29.6401C15.385 28.7301 15.077 27.97 14.308 27.36L4.30797 18.7C3.53797 17.78 3.07701 16.72 3.07701 15.5C3.23101 14.29 3.69197 13.22 4.76897 12.62L19.385 2.89006C20 2.43006 20.154 1.52006 19.692 0.760059C19.231 5.87106e-05 18.308 -0.149902 17.538 0.300098L3.07701 10.1801C1.23101 11.4001 0.153983 13.22 -1.65068e-05 15.35C-0.154017 17.48 0.614967 19.46 2.30797 20.98L12.308 29.6401V42.5601C11.692 42.5601 11.231 42.86 10.923 43.47L6.30797 52.59C6.15397 52.74 6.15398 52.9 6.15398 53.2V74.48C6.15398 75.39 6.769 76 7.692 76H20C20.923 76 21.538 75.39 21.538 74.48V53.2C21.538 52.9 21.538 52.74 21.385 52.59L16.769 43.47ZM18.461 72.96H9.231V53.5L13.231 45.6H14.461L18.461 53.5V72.96Z" fill="#F36C69"/>
<path d="M60 15.2C60 6.83995 53.08 0 44.615 0C36.154 0 29.231 6.83995 29.231 15.2C29.231 23.1 35.385 29.49 43.077 30.25V42.5601C42.461 42.5601 42 42.86 41.692 43.47L37.077 52.59C36.923 52.74 36.923 52.9 36.923 53.2V74.48C36.923 75.39 37.538 76 38.461 76H50.77C51.69 76 52.31 75.39 52.31 74.48V53.2C52.31 52.9 52.31 52.74 52.15 52.59L47.54 43.47C47.23 42.86 46.77 42.5601 46.15 42.5601V30.25C53.85 29.49 60 23.1 60 15.2ZM49.23 53.5V72.96H40V53.5L44 45.6H45.23L49.23 53.5ZM32.308 15.2C32.308 8.50995 37.846 3.04004 44.615 3.04004C51.38 3.04004 56.92 8.50995 56.92 15.2C56.92 21.89 51.38 27.36 44.615 27.36C37.846 27.36 32.308 21.89 32.308 15.2Z" fill="#F36C69"/>
</g>
</svg>
