<svg width="106" height="79" viewBox="0 0 106 79" fill="none" xmlns="http://www.w3.org/2000/svg">
<mask id="mask0_0_45" style="mask-type:luminance" maskUnits="userSpaceOnUse" x="0" y="0" width="106" height="79">
<path d="M106 0H0V79H106V0Z" fill="white"/>
</mask>
<g mask="url(#mask0_0_45)">
<path d="M62.4399 79.0001C61.4999 79.0001 60.65 78.8101 59.81 78.4301C57.74 77.4701 56.43 75.3601 56.14 72.7801L56.05 71.6301C55.49 66.2601 54.36 55.3501 50.51 54.8701C48.63 55.0601 46.29 58.4101 44.88 72.7801C44.6 75.3601 43.2799 77.3701 41.2199 78.4301C39.0599 79.4801 36.4299 79.1901 34.3599 77.6601C22.6299 69.3301 14.3599 31.03 23.5699 14.84C26.9499 8.81003 34.1799 3.06006 48.8199 10.2501C49.8499 10.7201 51.0699 10.7201 52.1099 10.2501C66.7499 3.16006 73.8899 8.81003 77.3599 14.84C86.5599 31.12 78.3 69.4201 66.66 77.6601C65.35 78.5201 63.9399 79.0001 62.4399 79.0001ZM50.51 50.85H50.6099C57.7399 51.33 58.96 63.2001 59.81 71.1501L59.9 72.3001C59.99 73.5401 60.56 74.4001 61.4 74.7901C62.25 75.1701 63.47 74.9801 64.41 74.3101C73.61 67.8001 82.6199 31.7901 73.9799 16.6601C70.2299 9.9601 63.3699 8.91004 53.6999 13.6C51.6399 14.65 49.2 14.65 47.13 13.6C37.46 8.91004 30.6999 9.9601 26.8499 16.6601C23.0999 23.3601 22.35 35.24 24.88 48.45C27.23 60.61 31.92 71.0501 36.52 74.3101C37.46 74.9801 38.68 75.17 39.53 74.69C40.37 74.31 40.84 73.45 41.03 72.2C41.69 65.4 42.9999 51.1301 50.3199 50.7501C50.5099 50.8501 50.51 50.85 50.51 50.85Z" fill="#F36C69"/>
<path d="M58.77 19.63C54.46 19.63 51.5399 17.52 48.8199 15.42C46.8499 13.98 44.88 12.5399 42.25 11.5899C42.25 11.5899 42.16 11.59 42.06 11.49C41.03 11.11 40.5599 10.05 40.9399 8.99997C41.3099 7.94997 42.34 7.46995 43.38 7.84995C46.66 8.99995 49.0099 10.72 51.0799 12.26C53.6999 14.17 55.77 15.6999 58.87 15.6999C59.9 15.6999 60.75 16.57 60.75 17.62C60.75 18.67 59.81 19.63 58.77 19.63Z" fill="#F36C69"/>
</g>
</svg>
