<svg width="99" height="84" viewBox="0 0 99 84" fill="none" xmlns="http://www.w3.org/2000/svg">
<mask id="mask0_0_39" style="mask-type:luminance" maskUnits="userSpaceOnUse" x="0" y="0" width="99" height="84">
<path d="M99 0H0V84H99V0Z" fill="white"/>
</mask>
<g mask="url(#mask0_0_39)">
<path d="M92.533 71.65C92.326 71.65 92.116 71.6201 91.913 71.5401L67.002 62.46H41.476C40.992 62.46 40.527 62.2701 40.189 61.9201L0.518023 21.7901C0.181023 21.4501 -0.00598202 20.99 1.79841e-05 20.51C0.00601798 20.04 0.202022 19.58 0.548022 19.25L7.06102 12.95C7.76602 12.27 8.88802 12.28 9.58702 12.96L45.401 48.08L70.302 48.28C70.536 48.29 70.768 48.3301 70.982 48.4201L97.889 59.58C98.359 59.77 98.725 60.16 98.895 60.63C99.066 61.11 99.026 61.64 98.785 62.08L94.124 70.71C93.802 71.3 93.182 71.65 92.533 71.65ZM42.234 58.87H67.323C67.535 58.87 67.745 58.91 67.944 58.98L91.684 67.64L94.661 62.13L69.92 51.87L44.639 51.6701C44.171 51.6601 43.721 51.48 43.386 51.15L8.31002 16.75L4.36602 20.5601L42.234 58.87Z" fill="#F36C69"/>
<path d="M69.3901 45.59C68.3931 45.59 67.5851 44.79 67.5851 43.79V3.58997H48.6451L45.7031 8.5C45.1921 9.35 44.0841 9.63 43.2271 9.12C42.3711 8.61 42.0911 7.51003 42.6011 6.66003L46.0681 0.880005C46.3941 0.330005 46.9831 0 47.6201 0H69.3911C70.3881 0 71.1961 0.800039 71.1961 1.79004V43.79C71.1961 44.79 70.3871 45.59 69.3901 45.59Z" fill="#F36C69"/>
<path d="M47.3451 20.1801C47.0001 20.1801 46.656 20.08 46.357 19.89L32.0131 10.5699C31.5371 10.2599 31.2361 9.75005 31.1991 9.18005C31.1631 8.62005 31.397 8.06995 31.831 7.69995C31.972 7.57995 35.333 4.79004 39.822 4.79004C41.675 4.79004 43.4561 5.25994 45.1171 6.18994C51.2971 9.65994 49.19 18.4499 49.097 18.8199C48.957 19.3899 48.5501 19.8501 48.0061 20.0601C47.7921 20.1401 47.5691 20.1801 47.3451 20.1801ZM36.399 9.13L45.905 15.3101C45.952 13.2501 45.5461 10.5499 43.3421 9.31995C42.2301 8.68995 41.046 8.37 39.823 8.37C38.531 8.37 37.347 8.72 36.399 9.13Z" fill="#F36C69"/>
<path d="M46.667 76.1C45.675 76.1 44.868 75.15 44.861 74.16L44.782 62.35C44.775 61.36 45.578 60.3101 46.574 60.3101C46.579 60.3101 46.583 60.3101 46.587 60.3101C47.579 60.3101 48.386 61.26 48.393 62.24L48.472 74.0601C48.479 75.0501 47.676 76.1 46.68 76.1C46.675 76.1 46.671 76.1 46.667 76.1Z" fill="#F36C69"/>
<path d="M63.1911 75.38C62.1991 75.38 61.3931 74.47 61.3851 73.49L61.3071 62.01C61.2991 61.02 62.1031 60.3101 63.1001 60.3101C63.1041 60.3101 63.1091 60.3101 63.1121 60.3101C64.1041 60.3101 64.9101 60.9401 64.9181 61.9301L64.9961 73.54C65.0041 74.54 64.2011 75.38 63.2031 75.38C63.1991 75.38 63.1941 75.38 63.1911 75.38Z" fill="#F36C69"/>
<path d="M73.001 84H38.336C37.339 84 36.531 83.2 36.531 82.21V74.3101C36.531 73.3201 37.339 72.51 38.336 72.51H46.641C47.639 72.51 48.447 73.3201 48.447 74.3101C48.447 75.3001 47.639 76.1 46.641 76.1H40.142V80.41H71.196V76.1H63.252C62.254 76.1 61.446 75.3001 61.446 74.3101C61.446 73.3201 62.254 72.51 63.252 72.51H73.001C73.999 72.51 74.807 73.3201 74.807 74.3101V82.21C74.807 83.2 73.999 84 73.001 84Z" fill="#F36C69"/>
<path d="M51.175 50.62C51.007 50.62 50.835 50.6001 50.666 50.5501C49.709 50.2701 49.161 49.27 49.441 48.32L52.049 39.47C52.329 38.52 53.333 37.98 54.289 38.25C55.246 38.53 55.795 39.53 55.514 40.48L52.907 49.33C52.677 50.11 51.957 50.62 51.175 50.62Z" fill="#F36C69"/>
<path d="M62.874 40.92C62.87 40.92 62.867 40.92 62.863 40.92L45.041 40.98C44.043 40.97 43.24 40.14 43.246 39.15C43.252 38.16 44.059 37.33 45.052 37.33C45.055 37.33 45.059 37.33 45.062 37.33L62.885 37.54C63.882 37.55 64.685 38.25 64.679 39.24C64.674 40.23 63.866 40.92 62.874 40.92Z" fill="#F36C69"/>
</g>
</svg>
