<svg width="106" height="107" viewBox="0 0 106 107" fill="none" xmlns="http://www.w3.org/2000/svg">
<path fill-rule="evenodd" clip-rule="evenodd" d="M23.134 83.451C9.844 80.111 0 68.068 0 53.728C0 39.39 9.843 27.3481 23.131 24.0077C26.469 10.7037 38.495 0.849609 52.817 0.849609C66.87 0.849609 79.102 10.4439 82.501 24.0077C95.791 27.3471 105.635 39.39 105.635 53.728C105.635 68.068 95.79 80.11 82.501 83.45C79.102 97.014 66.872 106.608 52.817 106.608C38.763 106.608 26.534 97.015 23.134 83.451ZM34.157 81.343C32.989 81.493 31.806 81.57 30.606 81.57C29.87 81.57 29.141 81.542 28.418 81.485C30.928 92.657 40.898 101.005 52.816 101.005C64.734 101.005 74.704 92.657 77.213 81.485C76.492 81.541 75.763 81.57 75.027 81.57H71.408C69.006 89.572 61.592 95.403 52.816 95.403C43.958 95.403 36.486 89.461 34.157 81.343ZM61.177 73.165V61.592C59.477 60.598 57.587 59.901 55.579 59.563V78.768H75.027C88.838 78.768 100.037 67.557 100.037 53.728C100.037 39.901 88.838 28.6901 75.027 28.6901H55.58V51.081C54.673 50.981 53.752 50.928 52.817 50.928C44.199 50.928 36.895 45.304 34.359 37.524C33.147 37.242 31.889 37.094 30.607 37.094C29.883 37.094 29.169 37.142 28.47 37.231C31.062 48.292 40.979 56.531 52.818 56.531C62.591 56.531 70.671 63.759 72.027 73.165H61.177ZM77.65 72.988C87.132 71.706 94.442 63.573 94.442 53.728C94.442 42.993 85.751 34.2933 75.028 34.2933H61.177V52.361C69.98 55.486 76.516 63.409 77.65 72.988ZM47.397 43.959L52.243 41.159C48.323 34.3991 41.417 29.8045 33.581 28.8676C34.861 19.3743 42.984 12.0561 52.817 12.0561C61.594 12.0561 69.007 17.8859 71.409 25.8889H75.028C75.765 25.8889 76.493 25.9182 77.214 25.973C74.704 14.8005 64.734 6.4519 52.817 6.4519C39.903 6.4519 29.276 16.253 27.949 28.8308C15.386 30.1605 5.597 40.801 5.597 53.728C5.597 67.557 16.795 78.768 30.607 78.768C39.667 78.768 47.846 73.882 52.244 66.299L47.398 63.498C43.983 69.376 37.634 73.165 30.607 73.165C19.884 73.165 11.194 64.463 11.194 53.728C11.194 42.993 19.884 34.2933 30.607 34.2933C37.616 34.2933 43.973 38.063 47.397 43.959Z" fill="black" fill-opacity="0.59"/>
</svg>
